<svg width="90" height="40" viewBox="0 0 84 22" fill="none" xmlns="http://www.w3.org/2000/svg">
<g filter="url(#filter0_d_3_1724)">
<path d="M9.83438 8.19531H17.4833C17.4833 12.3937 14.0328 15.8443 9.83438 15.8443C5.63595 15.8443 2.18542 12.3937 2.18542 8.19531C2.18542 3.99689 5.63595 0.546356 9.83438 0.546356C11.8656 0.546356 13.8118 1.35374 15.2396 2.79004L9.83438 8.19531Z" fill="url(#paint0_linear_3_1724)"/>
</g>
<path d="M24.1475 14.5464H21.525V2.30802H26.5602C27.2013 2.30802 27.7899 2.37213 28.326 2.50034C28.8739 2.62855 29.3867 2.83835 29.8646 3.12974C30.3541 3.42113 30.7329 3.8349 31.001 4.37106C31.2807 4.90721 31.4206 5.54827 31.4206 6.29422C31.4206 8.14746 30.5289 9.35963 28.7456 9.93076L32.3997 14.5464H29.375L26.0707 10.2629H24.1475V14.5464ZM24.1475 4.61582V8.07752H26.6826C27.277 8.07752 27.7666 7.93766 28.1512 7.65792C28.5475 7.36653 28.7456 6.92945 28.7456 6.34667C28.7456 5.75224 28.5533 5.31516 28.1687 5.03542C27.7841 4.75569 27.2887 4.61582 26.6826 4.61582H24.1475ZM33.8692 2.30802H42.4885V4.61582H36.4917V7.22084H41.964V9.51116H36.4917V12.2386H42.5934V14.5464H33.8692V2.30802ZM50.6081 2.30802H53.0208V14.5464H50.8879V13.3225C50.1769 14.3016 49.1629 14.7911 47.8458 14.7911C46.5753 14.7911 45.5729 14.3599 44.8386 13.4974C44.1043 12.6232 43.7372 11.5742 43.7372 10.3504C43.7372 9.12652 44.1043 8.08335 44.8386 7.22084C45.5729 6.34667 46.5753 5.90959 47.8458 5.90959C48.9997 5.90959 49.9205 6.28839 50.6081 7.04601V2.30802ZM50.6081 9.35381C50.4333 8.95752 50.1477 8.62533 49.7515 8.35726C49.3668 8.08918 48.9239 7.95514 48.4227 7.95514C47.7467 7.95514 47.2105 8.18825 46.8143 8.65447C46.418 9.10904 46.2198 9.67433 46.2198 10.3504C46.2198 11.0264 46.418 11.5975 46.8143 12.0637C47.2105 12.5183 47.7467 12.7456 48.4227 12.7456C48.9239 12.7456 49.3668 12.6115 49.7515 12.3435C50.1477 12.0754 50.4333 11.7432 50.6081 11.3469V9.35381ZM60.9071 6.15436H63.3372V14.5464H61.1868V13.4799C60.4292 14.354 59.4967 14.7911 58.3895 14.7911C57.2938 14.7911 56.4488 14.4706 55.8544 13.8295C55.2716 13.1885 54.9802 12.3609 54.9802 11.3469V6.15436H57.4104V11.0322C57.4104 11.58 57.5503 11.9938 57.83 12.2735C58.1097 12.5533 58.506 12.6931 59.0189 12.6931C59.7648 12.6931 60.3942 12.3376 60.9071 11.6266V6.15436ZM64.9255 10.4727C64.9255 9.70347 65.0595 9.01579 65.3276 8.40971C65.6073 7.80362 65.9745 7.32574 66.4291 6.97607C66.8836 6.61475 67.3848 6.34667 67.9326 6.17184C68.4804 5.98535 69.0574 5.89211 69.6635 5.89211C70.6309 5.89211 71.4934 6.09608 72.251 6.50402V8.63699C71.5983 8.21739 70.8523 8.00759 70.0131 8.00759C69.2788 8.00759 68.6611 8.19991 68.1599 8.58454C67.6587 8.96917 67.4081 9.55778 67.4081 10.3504C67.4081 11.108 67.6587 11.6907 68.1599 12.0987C68.6611 12.495 69.2672 12.6931 69.9782 12.6931C70.8757 12.6931 71.6624 12.4892 72.3384 12.0812V14.2317C71.4643 14.6046 70.5202 14.7911 69.5061 14.7911C68.2473 14.7911 67.1692 14.424 66.2717 13.6897C65.3742 12.9437 64.9255 11.8714 64.9255 10.4727ZM73.4964 10.3504C73.4964 9.59274 73.6305 8.92255 73.8985 8.33977C74.1666 7.74534 74.5163 7.27912 74.9475 6.94111C75.3904 6.60309 75.8508 6.34667 76.3287 6.17184C76.8183 5.99701 77.3136 5.90959 77.8148 5.90959C78.654 5.90959 79.3766 6.06694 79.9827 6.38164C80.6005 6.69634 81.055 7.10428 81.3464 7.60547C81.6378 8.09501 81.836 8.65447 81.9409 9.28387C82.0574 9.90162 82.0283 10.5194 81.8535 11.1371H75.9441C76.0723 11.7199 76.4103 12.157 76.9581 12.4484C77.5059 12.7281 78.1528 12.868 78.8988 12.868C79.8196 12.868 80.6646 12.699 81.4339 12.3609V14.2666C80.6063 14.6163 79.5806 14.7911 78.3568 14.7911C76.9581 14.7911 75.7984 14.4007 74.8776 13.6197C73.9568 12.8388 73.4964 11.749 73.4964 10.3504ZM79.668 9.56361C79.7263 9.17897 79.6156 8.78268 79.3359 8.37474C79.0561 7.96679 78.5782 7.76282 77.9022 7.76282C77.3661 7.76282 76.9057 7.926 76.521 8.25236C76.1364 8.56706 75.9383 9.00414 75.9266 9.56361H79.668Z" fill="#172D43"/>
<defs>
<filter id="filter0_d_3_1724" x="8.10623e-06" y="2.14577e-06" width="21.8542" height="21.8542" filterUnits="userSpaceOnUse" color-interpolation-filters="sRGB">
<feFlood flood-opacity="0" result="BackgroundImageFix"/>
<feColorMatrix in="SourceAlpha" type="matrix" values="0 0 0 0 0 0 0 0 0 0 0 0 0 0 0 0 0 0 127 0" result="hardAlpha"/>
<feOffset dx="1.09271" dy="2.73177"/>
<feGaussianBlur stdDeviation="1.63906"/>
<feComposite in2="hardAlpha" operator="out"/>
<feColorMatrix type="matrix" values="0 0 0 0 0.364706 0 0 0 0 0.372549 0 0 0 0 0.937255 0 0 0 0.2 0"/>
<feBlend mode="normal" in2="BackgroundImageFix" result="effect1_dropShadow_3_1724"/>
<feBlend mode="normal" in="SourceGraphic" in2="effect1_dropShadow_3_1724" result="shape"/>
</filter>
<linearGradient id="paint0_linear_3_1724" x1="25.6787" y1="3.82448" x2="-42.0693" y2="40.4302" gradientUnits="userSpaceOnUse">
<stop stop-color="#5D5FEF"/>
<stop offset="1" stop-color="#0003FF"/>
</linearGradient>
</defs>
</svg>
